<svg width="535" height="511" viewBox="0 0 535 511" fill="none" xmlns="http://www.w3.org/2000/svg">
<path d="M497.092 135.761V107.07H492.632V135.761C491.353 136.279 490.294 137.226 489.635 138.439C488.977 139.652 488.762 141.057 489.025 142.412C489.289 143.767 490.015 144.988 491.08 145.866C492.145 146.744 493.482 147.224 494.862 147.224C496.242 147.224 497.579 146.744 498.644 145.866C499.709 144.988 500.435 143.767 500.699 142.412C500.963 141.057 500.747 139.652 500.089 138.439C499.431 137.226 498.371 136.279 497.092 135.761Z" fill="#E6E6E6"/>
<path d="M507.498 425.307H477.023V55.0222H465.13V425.307H434.655C431.044 425.307 427.467 426.018 424.131 427.401C420.794 428.783 417.762 430.81 415.209 433.364C412.655 435.919 410.629 438.952 409.247 442.29C407.865 445.628 407.153 449.205 407.153 452.818V452.818H535V452.818C535 449.205 534.289 445.627 532.907 442.29C531.524 438.952 529.499 435.919 526.945 433.364C524.391 430.81 521.359 428.783 518.023 427.401C514.686 426.018 511.11 425.307 507.498 425.307Z" fill="#E6E6E6"/>
<path d="M407.215 110.044H534.938L527.128 12.3872C526.842 9.01976 525.307 5.88111 522.825 3.58872C520.343 1.29632 517.093 0.0161275 513.714 0H428.439C425.061 0.0161293 421.811 1.29632 419.328 3.58872C416.846 5.88111 415.311 9.01976 415.026 12.3872L407.215 110.044Z" fill="#5199FF"/>
<path d="M45.4135 340.197H435.255V300.383C435.255 192.868 347.814 105.397 240.334 105.397C132.855 105.397 45.4135 192.868 45.4135 300.383V340.197Z" fill="#3F3D56"/>
<path opacity="0.2" d="M45.4135 340.197H435.255V300.383C435.255 192.868 347.814 105.397 240.334 105.397C132.855 105.397 45.4135 192.868 45.4135 300.383V340.197Z" fill="black"/>
<path d="M95.9386 353.979H395.956C395.671 338.19 389.205 323.142 377.948 312.07C366.69 300.999 351.541 294.786 335.754 294.769H156.141C140.354 294.786 125.204 300.999 113.947 312.07C102.69 323.142 96.2237 338.19 95.9386 353.979Z" fill="#5199FF"/>
<path d="M60.2111 347.854C93.4648 347.854 120.422 320.887 120.422 287.623C120.422 254.358 93.4648 227.391 60.2111 227.391C26.9574 227.391 0 254.358 0 287.623C0 320.887 26.9574 347.854 60.2111 347.854Z" fill="#3F3D56"/>
<path d="M425.56 347.854C458.814 347.854 485.771 320.887 485.771 287.623C485.771 254.358 458.814 227.391 425.56 227.391C392.306 227.391 365.349 254.358 365.349 287.623C365.349 320.887 392.306 347.854 425.56 347.854Z" fill="#3F3D56"/>
<path d="M380.147 318.249V340.708H102.053V318.249H39.8005V427.715C39.8005 434.422 42.464 440.854 47.2049 445.597C51.9459 450.339 58.376 453.004 65.0807 453.004H417.119C420.438 453.004 423.726 452.35 426.793 451.079C429.86 449.808 432.647 447.945 434.994 445.597C437.342 443.249 439.204 440.461 440.474 437.393C441.745 434.324 442.399 431.036 442.399 427.715V318.249H380.147Z" fill="#3F3D56"/>
<path opacity="0.2" d="M60.2112 299.873C66.9746 299.873 72.4575 294.388 72.4575 287.623C72.4575 280.857 66.9746 275.372 60.2112 275.372C53.4477 275.372 47.9648 280.857 47.9648 287.623C47.9648 294.388 53.4477 299.873 60.2112 299.873Z" fill="black"/>
<path opacity="0.2" d="M425.56 299.873C432.324 299.873 437.806 294.388 437.806 287.623C437.806 280.857 432.324 275.372 425.56 275.372C418.797 275.372 413.314 280.857 413.314 287.623C413.314 294.388 418.797 299.873 425.56 299.873Z" fill="black"/>
<path d="M262.515 98.5169C262.515 98.5169 263.719 121.399 272.146 126.216C280.574 131.034 272.146 163.551 272.146 163.551L232.417 164.755L230.009 126.216C230.009 126.216 234.825 110.56 232.417 103.334C230.009 96.1082 262.515 98.5169 262.515 98.5169Z" fill="#FFB8B8"/>
<path d="M307.06 416.46L292.613 433.321L315.488 454.999L327.527 430.912L307.06 416.46Z" fill="#FFB8B8"/>
<path d="M204.726 416.46L219.174 433.321L196.299 454.999L184.26 430.912L204.726 416.46Z" fill="#FFB8B8"/>
<path d="M299.235 256.886C299.235 256.886 385.917 285.79 381.102 313.49C376.286 341.189 338.964 438.74 338.964 438.74C338.964 438.74 318.497 438.74 302.846 417.062L313.682 392.976C313.682 392.976 308.866 379.728 317.294 377.319C325.721 374.911 330.537 332.759 330.537 332.759C330.537 332.759 269.136 327.942 255.893 305.059L231.815 247.252L299.235 256.886Z" fill="#2F2E41"/>
<path d="M212.552 256.886C212.552 256.886 125.869 285.79 130.685 313.49C135.501 341.189 172.822 438.74 172.822 438.74C172.822 438.74 193.289 438.74 208.94 417.062L198.105 392.976C198.105 392.976 202.921 379.728 194.493 377.319C186.066 374.911 181.25 332.759 181.25 332.759C181.25 332.759 242.65 327.942 255.893 305.059L279.972 247.252L212.552 256.886Z" fill="#2F2E41"/>
<path d="M311.274 445.966C311.274 445.966 323.313 435.127 324.517 443.558C325.721 451.988 323.313 485.709 323.313 485.709C323.313 485.709 335.352 511 317.294 511C299.235 511 290.807 491.731 293.215 472.461C295.623 453.192 284.788 445.966 284.788 445.966C284.788 445.966 271.544 419.471 284.788 417.062C298.031 414.654 302.846 420.675 302.846 420.675C302.846 420.675 298.031 442.353 311.274 445.966Z" fill="#2F2E41"/>
<path d="M200.513 445.966C200.513 445.966 188.473 435.127 187.27 443.558C186.066 451.988 188.473 485.709 188.473 485.709C188.473 485.709 176.434 511 194.493 511C212.552 511 220.979 491.731 218.572 472.461C216.164 453.192 226.999 445.966 226.999 445.966C226.999 445.966 240.242 419.471 226.999 417.062C213.756 414.654 208.94 420.675 208.94 420.675C208.94 420.675 213.756 442.353 200.513 445.966Z" fill="#2F2E41"/>
<path d="M243.854 112.367C259.147 112.367 271.544 99.9651 271.544 84.667C271.544 69.3689 259.147 56.9674 243.854 56.9674C228.561 56.9674 216.164 69.3689 216.164 84.667C216.164 99.9651 228.561 112.367 243.854 112.367Z" fill="#FFB8B8"/>
<path d="M248.068 132.238L231.213 118.99L190.279 138.26L189.075 247.854C189.075 247.854 163.793 259.897 171.016 275.553C171.016 275.553 192.687 280.371 202.319 290.005C211.95 299.64 266.127 286.392 289.001 279.166C311.876 271.94 317.896 263.51 317.896 263.51L295.021 230.993L308.264 147.894L267.335 120.368L248.068 132.238Z" fill="#E6E6E6"/>
<path d="M277.518 65.8141C276.915 64.9951 276.364 64.1391 275.868 63.2511C275.009 61.1593 276.365 58.6942 275.098 56.7409C273.804 54.7469 270.52 54.3264 268.286 52.9717C264.844 50.8849 264.218 46.7901 260.993 44.4905C258.669 42.8336 255.356 42.3869 252.251 42.4815C249.146 42.576 246.082 43.1376 242.976 43.1992C238.783 43.2928 234.622 42.4417 230.803 40.709L233.094 45.1932C230.548 44.6379 228.115 43.6515 225.901 42.2764C224.887 43.534 226.741 45.4428 225.592 46.6224C225.12 47.0029 224.563 47.2616 223.968 47.3755C219.548 48.6319 215.386 50.6631 211.676 53.3746C210.817 53.9211 210.106 54.6715 209.607 55.559C209.01 56.8832 209.539 58.3457 209.494 59.7536C209.412 62.3119 207.459 64.5428 206.074 66.8474C204.689 69.1521 203.941 72.14 205.995 74.096C206.495 74.4934 206.974 74.9161 207.431 75.3625C209.49 77.7918 205.846 81.3495 207.602 83.9274C208.365 85.0467 209.928 85.6132 211.287 86.2744C213.889 87.4915 216.079 89.4437 217.585 91.8903L216.529 84.1364C216.474 83.9447 216.464 83.7428 216.501 83.5467C216.537 83.3506 216.619 83.1657 216.74 83.0069C217.251 82.4854 218.323 82.6933 219.028 82.348C219.805 81.968 219.864 81.0963 219.833 80.3662L219.595 74.7367C219.488 72.2052 219.459 71.8691 221.323 69.8257C222.625 68.3982 224.673 67.5369 226.73 66.9034C231.432 65.4559 236.489 64.9552 241.487 64.4659C247.291 63.8977 253.827 61.0804 258.335 64.0717C262.025 66.5203 263.251 70.5451 265.029 74.1147C266.627 77.3231 270.729 86.7698 274.143 81.6562C276.288 78.4449 279.567 69.3897 277.518 65.8141Z" fill="#2F2E41"/>
<path d="M248.608 76.6318C248.494 76.6319 248.384 76.6773 248.304 76.7579C248.223 76.8386 248.177 76.948 248.177 77.0621V88.6592C248.177 88.7733 248.223 88.8827 248.304 88.9634C248.384 89.044 248.494 89.0893 248.608 89.0894H268.565C268.679 89.0893 268.788 89.044 268.869 88.9634C268.95 88.8827 268.995 88.7733 268.995 88.6592V77.0621C268.995 76.948 268.95 76.8386 268.869 76.7579C268.788 76.6773 268.679 76.6319 268.565 76.6318L248.608 76.6318Z" fill="#3F3D56"/>
<path d="M250.838 77.6545C250.625 77.6548 250.422 77.7394 250.271 77.8897C250.121 78.0401 250.036 78.2439 250.036 78.4565V87.2647C250.036 87.4773 250.121 87.6812 250.271 87.8315C250.422 87.9819 250.625 88.0664 250.838 88.0667H266.335C266.547 88.0664 266.751 87.9819 266.901 87.8315C267.052 87.6812 267.136 87.4773 267.136 87.2647V78.4565C267.136 78.2439 267.052 78.0401 266.901 77.8897C266.751 77.7394 266.547 77.6548 266.335 77.6545H250.838Z" fill="#FF6584"/>
<path d="M248.832 80.4519H238.436V82.8606H248.832V80.4519Z" fill="#3F3D56"/>
<path d="M220.347 76.6318C220.233 76.632 220.124 76.6774 220.043 76.7581C219.962 76.8387 219.917 76.948 219.917 77.0621V88.6592C219.917 88.7733 219.962 88.8826 220.043 88.9633C220.124 89.0439 220.233 89.0893 220.347 89.0894H240.304C240.418 89.0893 240.528 89.0439 240.608 88.9633C240.689 88.8826 240.734 88.7733 240.735 88.6592V77.0621C240.734 76.948 240.689 76.8387 240.608 76.758C240.528 76.6774 240.418 76.632 240.304 76.6318L220.347 76.6318Z" fill="#3F3D56"/>
<path d="M222.578 77.6545C222.365 77.6547 222.161 77.7393 222.011 77.8896C221.86 78.04 221.776 78.2439 221.775 78.4565V87.2647C221.776 87.4774 221.86 87.6813 222.011 87.8316C222.161 87.982 222.365 88.0665 222.578 88.0667H238.074C238.286 88.0665 238.49 87.982 238.641 87.8316C238.791 87.6813 238.876 87.4774 238.876 87.2647V78.4565C238.876 78.2439 238.791 78.04 238.641 77.8896C238.49 77.7393 238.286 77.6547 238.074 77.6545H222.578Z" fill="#5199FF"/>
<path d="M209.437 221.39H278.564C281.324 221.39 283.97 222.487 285.922 224.439C287.873 226.391 288.97 229.039 288.97 231.8H199.031C199.031 229.039 200.128 226.391 202.079 224.439C204.031 222.487 206.678 221.39 209.437 221.39Z" fill="#3F3D56"/>
<path d="M283.395 220.646C282.991 220.648 282.589 220.717 282.207 220.849C282.075 220.321 281.756 219.859 281.307 219.551C280.859 219.243 280.314 219.11 279.774 219.176C279.234 219.243 278.737 219.505 278.378 219.913C278.018 220.32 277.819 220.846 277.82 221.39C277.82 221.401 277.823 221.411 277.823 221.422C277.545 221.449 277.27 221.506 277.003 221.592C276.928 221.292 276.791 221.011 276.601 220.766C276.411 220.522 276.173 220.319 275.901 220.172C276.616 219.776 277.181 219.158 277.51 218.41C277.928 218.452 278.35 218.405 278.748 218.272C279.147 218.14 279.513 217.925 279.822 217.641C280.132 217.358 280.379 217.012 280.546 216.627C280.714 216.241 280.798 215.825 280.794 215.405C280.789 214.985 280.696 214.57 280.521 214.189C280.346 213.807 280.092 213.466 279.777 213.189C279.461 212.912 279.091 212.704 278.69 212.58C278.289 212.456 277.866 212.417 277.449 212.467C277.044 212.469 276.643 212.538 276.26 212.67C276.192 212.378 276.064 212.102 275.886 211.86C275.708 211.618 275.483 211.415 275.225 211.263C274.966 211.11 274.679 211.012 274.381 210.973C274.083 210.935 273.781 210.957 273.492 211.039C273.203 211.121 272.934 211.26 272.7 211.449C272.466 211.637 272.274 211.871 272.133 212.137C271.992 212.402 271.907 212.693 271.882 212.993C271.857 213.292 271.892 213.593 271.987 213.878C271.898 213.94 271.815 214.01 271.732 214.079C271.312 213.717 270.766 213.535 270.212 213.573C269.926 212.751 269.361 212.057 268.615 211.611C267.868 211.165 266.989 210.996 266.131 211.134C265.273 211.271 264.49 211.707 263.92 212.363C263.351 213.02 263.03 213.856 263.015 214.726C262.717 214.749 262.422 214.808 262.138 214.901C262.106 214.775 262.063 214.652 262.009 214.534C262.303 214.275 262.539 213.957 262.701 213.601C262.864 213.245 262.95 212.859 262.955 212.467C262.902 211.63 262.522 210.848 261.895 210.291C261.268 209.734 260.447 209.447 259.61 209.493C259.205 209.495 258.804 209.563 258.421 209.696C258.352 209.403 258.225 209.128 258.047 208.886C257.869 208.644 257.644 208.441 257.385 208.288C257.127 208.136 256.84 208.038 256.542 207.999C256.244 207.961 255.942 207.983 255.653 208.065C255.364 208.146 255.095 208.286 254.861 208.474C254.627 208.663 254.434 208.897 254.294 209.163C254.153 209.428 254.068 209.719 254.043 210.018C254.018 210.318 254.053 210.619 254.148 210.904C253.68 211.229 253.293 211.658 253.018 212.157C252.742 212.656 252.585 213.212 252.559 213.781C252.528 213.809 252.492 213.832 252.462 213.861C252.518 213.649 252.547 213.43 252.548 213.211C252.496 212.374 252.115 211.592 251.489 211.034C250.862 210.477 250.041 210.19 249.204 210.237C248.799 210.239 248.397 210.307 248.015 210.439C247.946 210.147 247.819 209.871 247.641 209.63C247.463 209.388 247.238 209.184 246.979 209.032C246.721 208.88 246.434 208.781 246.136 208.743C245.838 208.704 245.536 208.727 245.247 208.808C244.958 208.89 244.688 209.029 244.455 209.218C244.221 209.407 244.028 209.641 243.888 209.906C243.747 210.172 243.662 210.463 243.637 210.762C243.611 211.061 243.647 211.363 243.742 211.648C243.248 211.989 242.845 212.444 242.566 212.976C242.288 213.507 242.142 214.098 242.142 214.698C242.142 215.298 242.288 215.889 242.566 216.42C242.845 216.952 243.248 217.408 243.742 217.749C243.591 218.181 243.591 218.651 243.742 219.083C243.369 219.343 243.047 219.668 242.791 220.044C242.653 219.544 242.345 219.109 241.92 218.813C241.495 218.517 240.98 218.379 240.464 218.424C239.948 218.469 239.464 218.693 239.096 219.057C238.728 219.421 238.499 219.903 238.449 220.419C238.151 220.244 237.829 220.114 237.493 220.033C238.095 219.635 238.569 219.072 238.858 218.41C239.276 218.452 239.698 218.405 240.097 218.272C240.495 218.14 240.861 217.925 241.171 217.641C241.481 217.358 241.728 217.012 241.895 216.627C242.062 216.241 242.146 215.825 242.142 215.405C242.138 214.985 242.045 214.57 241.87 214.189C241.695 213.807 241.441 213.466 241.126 213.189C240.81 212.912 240.44 212.704 240.038 212.58C239.637 212.456 239.214 212.417 238.797 212.467C238.393 212.469 237.991 212.538 237.609 212.67C237.54 212.378 237.413 212.102 237.235 211.86C237.057 211.618 236.832 211.415 236.573 211.263C236.314 211.11 236.028 211.012 235.73 210.973C235.432 210.935 235.13 210.957 234.841 211.039C234.552 211.121 234.282 211.26 234.049 211.449C233.815 211.637 233.622 211.871 233.482 212.137C233.341 212.402 233.255 212.693 233.23 212.993C233.205 213.292 233.241 213.593 233.336 213.878C233.288 213.911 233.245 213.95 233.199 213.986C233.083 213.975 232.97 213.955 232.851 213.955C232.447 213.956 232.045 214.025 231.662 214.157C231.648 214.101 231.625 214.049 231.607 213.995C231.679 213.664 231.673 213.32 231.59 212.992C231.507 212.663 231.349 212.359 231.129 212.102C230.908 211.845 230.631 211.642 230.319 211.51C230.007 211.379 229.669 211.321 229.331 211.342C229.137 210.803 228.822 210.316 228.409 209.919C227.996 209.522 227.497 209.226 226.95 209.054C226.404 208.882 225.825 208.839 225.26 208.928C224.694 209.017 224.156 209.236 223.689 209.567C223.222 209.898 222.838 210.333 222.567 210.838C222.295 211.343 222.144 211.903 222.126 212.476C222.107 213.048 222.221 213.617 222.458 214.139C222.696 214.66 223.051 215.119 223.496 215.48C223.24 215.509 222.988 215.564 222.743 215.644C222.655 215.282 222.477 214.947 222.225 214.672C221.973 214.397 221.656 214.19 221.303 214.071C220.949 213.951 220.572 213.923 220.204 213.989C219.837 214.055 219.493 214.213 219.204 214.448C218.872 214.055 218.458 213.74 217.99 213.526C217.522 213.312 217.013 213.204 216.499 213.211C216.094 213.213 215.692 213.281 215.31 213.413C215.241 213.121 215.114 212.846 214.936 212.604C214.758 212.362 214.533 212.159 214.274 212.006C214.016 211.854 213.729 211.755 213.431 211.717C213.133 211.678 212.831 211.701 212.542 211.782C212.253 211.864 211.983 212.004 211.75 212.192C211.516 212.381 211.323 212.615 211.183 212.88C211.042 213.146 210.957 213.437 210.932 213.736C210.906 214.035 210.942 214.337 211.037 214.622C210.543 214.963 210.14 215.419 209.862 215.95C209.583 216.481 209.437 217.072 209.437 217.672C209.437 217.684 209.441 217.694 209.441 217.706C208.914 217.626 208.375 217.684 207.877 217.875C207.808 217.582 207.681 217.307 207.503 217.065C207.325 216.823 207.1 216.62 206.841 216.467C206.583 216.315 206.296 216.217 205.998 216.178C205.7 216.14 205.398 216.162 205.109 216.244C204.82 216.325 204.55 216.465 204.317 216.653C204.083 216.842 203.89 217.076 203.75 217.342C203.609 217.607 203.524 217.898 203.499 218.197C203.473 218.497 203.509 218.798 203.604 219.083C202.887 219.568 202.363 220.29 202.123 221.122C201.883 221.954 201.942 222.844 202.289 223.637C202.637 224.43 203.252 225.076 204.026 225.462C204.801 225.849 205.687 225.951 206.529 225.752C206.663 226.528 207.041 227.241 207.607 227.788C208.174 228.334 208.9 228.686 209.68 228.792C210.459 228.898 211.253 228.752 211.944 228.377C212.636 228.001 213.19 227.415 213.526 226.703C216.204 227.052 218.921 226.929 221.556 226.341C221.802 227.046 222.254 227.66 222.854 228.102C223.454 228.545 224.174 228.796 224.919 228.823C225.665 228.85 226.401 228.651 227.031 228.252C227.661 227.854 228.157 227.274 228.452 226.589C228.994 226.579 229.527 226.447 230.011 226.203C230.35 226.803 230.85 227.296 231.454 227.627C232.058 227.958 232.743 228.114 233.431 228.077C234.118 228.039 234.782 227.811 235.347 227.417C235.912 227.023 236.356 226.479 236.628 225.846C237.455 225.689 238.311 225.827 239.046 226.235C239.782 226.644 240.351 227.297 240.656 228.082C241.153 227.401 241.792 226.837 242.53 226.429C243.267 226.021 244.084 225.778 244.925 225.718C245.672 225.927 246.466 225.89 247.191 225.613C247.915 225.336 248.532 224.834 248.95 224.181C248.716 225.086 248.832 226.047 249.275 226.87C249.718 227.694 250.455 228.32 251.339 228.624C252.223 228.928 253.189 228.887 254.044 228.51C254.9 228.133 255.582 227.447 255.954 226.589C256.496 226.579 257.029 226.447 257.513 226.203C257.852 226.803 258.352 227.296 258.956 227.627C259.56 227.958 260.245 228.114 260.932 228.077C261.62 228.039 262.284 227.811 262.849 227.417C263.414 227.023 263.858 226.479 264.13 225.846C264.672 225.835 265.205 225.703 265.689 225.46C265.951 225.926 266.31 226.329 266.743 226.642C267.176 226.955 267.672 227.169 268.197 227.271C268.721 227.373 269.261 227.359 269.78 227.231C270.298 227.102 270.782 226.863 271.199 226.528C271.328 227.239 271.662 227.897 272.161 228.421C272.659 228.944 273.3 229.31 274.004 229.473C274.708 229.637 275.444 229.59 276.122 229.34C276.8 229.089 277.39 228.646 277.819 228.064C278.265 228.406 278.783 228.641 279.334 228.753C279.885 228.864 280.454 228.848 280.998 228.705C281.541 228.563 282.046 228.299 282.472 227.932C282.898 227.565 283.234 227.106 283.456 226.589C283.874 226.631 284.296 226.584 284.694 226.451C285.093 226.319 285.459 226.104 285.769 225.82C286.079 225.537 286.325 225.191 286.492 224.806C286.66 224.42 286.744 224.004 286.74 223.584C286.735 223.164 286.643 222.749 286.468 222.368C286.292 221.986 286.039 221.645 285.723 221.368C285.408 221.091 285.037 220.883 284.636 220.759C284.235 220.635 283.812 220.596 283.395 220.646L283.395 220.646ZM216.961 219.112C216.957 219.13 216.954 219.148 216.951 219.166C216.923 219.165 216.898 219.159 216.87 219.159C216.759 219.162 216.649 219.173 216.539 219.193C216.545 219.179 216.554 219.167 216.56 219.154C216.694 219.147 216.828 219.133 216.961 219.112ZM248.015 217.875C248.004 217.831 247.986 217.792 247.972 217.749C248.54 217.356 248.987 216.812 249.264 216.18C249.753 216.177 250.236 216.072 250.681 215.87C251.127 215.668 251.524 215.375 251.849 215.009C251.82 215.152 251.806 215.296 251.805 215.442C251.808 215.669 251.846 215.894 251.918 216.109C251.28 216.554 250.797 217.188 250.536 217.921C249.728 217.606 248.834 217.59 248.015 217.875V217.875ZM270.277 218.152C270.275 218.106 270.281 218.059 270.278 218.014C270.373 218.014 270.467 218.007 270.561 217.995C270.706 218.476 270.947 218.923 271.269 219.307C271.199 219.327 271.125 219.339 271.057 219.362C270.937 218.884 270.663 218.459 270.277 218.152Z" fill="#F9A825"/>
<path d="M206.519 225.108C205.464 225.108 204.421 225.322 203.453 225.739C202.484 226.156 201.61 226.765 200.885 227.531C200.16 228.296 199.598 229.202 199.234 230.191C198.87 231.181 198.712 232.235 198.769 233.288L203.802 302.523C203.908 304.508 204.771 306.376 206.213 307.743C207.654 309.11 209.565 309.872 211.552 309.872H276.449C278.436 309.872 280.347 309.11 281.789 307.743C283.23 306.376 284.093 304.508 284.199 302.523L289.233 233.288C289.289 232.235 289.131 231.181 288.767 230.191C288.403 229.202 287.841 228.296 287.116 227.531C286.391 226.765 285.517 226.156 284.549 225.739C283.58 225.322 282.537 225.108 281.482 225.108H206.519Z" fill="#3F3D56"/>
<path d="M214.64 225.108H210.181V309.872H214.64V225.108Z" fill="#5199FF"/>
<path d="M227.276 225.108H222.817V309.872H227.276V225.108Z" fill="#5199FF"/>
<path d="M239.912 225.108H235.453V309.872H239.912V225.108Z" fill="#5199FF"/>
<path d="M252.548 225.108H248.089V309.872H252.548V225.108Z" fill="#5199FF"/>
<path d="M265.184 225.108H260.725V309.872H265.184V225.108Z" fill="#5199FF"/>
<path d="M277.82 225.108H273.361V309.872H277.82V225.108Z" fill="#5199FF"/>
<path d="M273.35 267.123L258.903 275.553C258.903 275.553 223.989 304.457 248.068 309.275C272.146 314.092 278.166 288.801 278.166 288.801L286.593 279.166L273.35 267.123Z" fill="#FFB8B8"/>
<path d="M204.726 261.101L219.174 269.532C219.174 269.532 254.087 298.436 230.009 303.253C205.93 308.07 199.911 282.779 199.911 282.779L191.483 273.145L204.726 261.101Z" fill="#FFB8B8"/>
<path d="M292.613 146.69L308.264 147.894C308.264 147.894 320.303 158.733 319.099 173.185C319.099 173.185 329.935 204.498 327.527 217.746C327.527 217.746 329.935 239.424 326.323 247.854C322.711 256.284 292.613 288.801 292.613 288.801C292.613 288.801 264.923 267.123 266.127 265.919L302.244 229.789L284.186 205.702L292.613 146.69Z" fill="#E6E6E6"/>
<path d="M190.279 138.26L189.677 138.862C189.677 138.862 162.589 150.303 163.793 164.755C163.793 164.755 152.958 196.068 155.365 209.315C155.365 209.315 152.958 230.993 156.569 239.424C160.181 247.854 190.279 280.371 190.279 280.371C190.279 280.371 217.97 258.693 216.766 257.489L180.648 221.359L198.707 197.272L190.279 138.26Z" fill="#E6E6E6"/>
</svg>
